<svg width="25" height="30" viewBox="0 0 25 30" fill="none" xmlns="http://www.w3.org/2000/svg">
<path d="M12.5 0.0125955C10.8395 -0.0622142 9.1811 0.19684 7.63086 0.773175C6.08062 1.34951 4.67273 2.23043 3.49732 3.35954C2.3219 4.48865 1.40486 5.84107 0.804884 7.33024C0.204913 8.81941 -0.0647657 10.4125 0.0131121 12.0076C0.0131121 15.786 3.13483 19.5044 4.69569 21.0038C6.25656 22.5031 12.5 30 12.5 30C12.5 30 18.7434 22.5031 20.3043 21.0038C21.8652 19.5044 24.9869 15.786 24.9869 12.0076C25.0648 10.4125 24.7951 8.81941 24.1951 7.33024C23.5951 5.84107 22.6781 4.48865 21.5027 3.35954C20.3273 2.23043 18.9194 1.34951 17.3691 0.773175C15.8189 0.19684 14.1605 -0.0622142 12.5 0.0125955ZM12.5 16.8805C11.4967 16.8805 10.5159 16.5947 9.6817 16.0593C8.84749 15.5238 8.19729 14.7628 7.81334 13.8724C7.4294 12.9819 7.32894 12.0022 7.52467 11.0569C7.72041 10.1116 8.20355 9.24335 8.91299 8.56186C9.62243 7.88036 10.5263 7.41626 11.5103 7.22824C12.4944 7.04021 13.5143 7.13671 14.4413 7.50554C15.3682 7.87436 16.1605 8.49894 16.7179 9.30029C17.2753 10.1016 17.5728 11.0438 17.5728 12.0076C17.5728 12.6475 17.4416 13.2811 17.1867 13.8724C16.9317 14.4636 16.5581 15.0008 16.087 15.4533C15.616 15.9058 15.0567 16.2647 14.4413 16.5096C13.8258 16.7545 13.1662 16.8805 12.5 16.8805Z" fill="#098136"/>
</svg>
